<?xml version="1.0" encoding="UTF-8"?><svg id="Layer_1" xmlns="http://www.w3.org/2000/svg" viewBox="0 0 513 513"><rect x=".5" y=".5" width="512" height="512" style="fill:#090f0e; stroke:#231f20; stroke-miterlimit:10;"/><path d="M316.4519,284.9743c.3173-.6997.1813-1.3325.1817-1.944.009-16.3644.0234-32.7289-.0057-49.0933-.0061-3.4585.4735-6.7937,2.1727-9.8374,3.8015-6.8094,9.5658-10.2232,17.4439-10.115,8.2735.1137,16.1181,6.5077,17.7209,15.4086.277,1.5384.4192,3.1062.4192,4.6775.0009,30.8467.0517,61.6936-.0472,92.5399-.0173,5.3894-1.4474,10.5149-5.5755,14.3799-4.0896,3.8289-8.9881,5.6273-14.6283,5.1189-4.8719-.4392-8.9863-2.5385-12.5841-5.7961-7.3992-6.6997-14.8237-13.3715-22.2475-20.044-7.6571-6.8821-15.3337-13.7425-22.9868-20.6291-5.8664-5.2789-11.7006-10.5935-17.5651-15.8746-6.7575-6.0852-13.5398-12.1428-20.2976-18.2275-5.826-5.2458-11.6247-10.5219-17.4503-15.7682-6.7964-6.1206-13.6125-12.2192-20.413-18.3352-4.5079-4.0541-9-8.1256-13.505-12.1829-6.0583-5.4561-12.1232-10.9049-18.1835-16.3589-3.3797-3.0416-6.7729-6.0686-10.1289-9.1362-3.7053-3.3869-6.1049-7.4968-6.9232-12.5089-1.8184-11.1382,6.9613-21.1853,18.2329-20.9088,5.5035.135,10.127,2.2278,14.1558,5.859,9.3172,8.3975,18.6468,16.7812,27.9648,25.1778,5.7851,5.213,11.55,10.4485,17.3389,15.6574,7.7701,6.9914,15.5592,13.9616,23.331,20.9511,4.6634,4.194,9.3033,8.4141,13.9645,12.6107,6.9136,6.2245,13.8396,12.4353,20.7546,18.6583,4.5454,4.0905,9.0805,8.1925,13.6207,12.2888,4.6178,4.1665,9.2332,8.3356,13.8597,12.4923.3812.3425.742.7397,1.3803.9397Z" style="fill:#fff; stroke-width:0px;"/><path d="M363.8975,169.2924c-.0513,7.8894-2.7126,14.7969-7.8514,20.7684-3.9246,4.5606-8.8035,7.526-14.5945,9.2338-3.8547,1.1368-7.7447,1.5009-11.6199,1.0137-6.0534-.7611-11.6151-2.9528-16.2915-7.0519-4.9315-4.3227-8.2432-9.6577-9.9863-15.9659-.7408-2.6808-1.0023-5.4134-1.0251-8.2069-.0398-4.8568,1.0636-9.4166,3.0805-13.7889,2.0277-4.3956,4.9481-8.0715,8.7819-11.0531,4.5637-3.5494,9.6706-5.8124,15.4009-6.4928,4.9553-.5884,9.7937.07,14.443,1.9618,3.4723,1.4128,6.5947,3.3799,9.3948,5.8608,3.052,2.7041,5.3842,5.933,7.1318,9.6217,1.3995,2.9541,2.2482,6.0621,2.8922,9.2396.3241,1.5989.1438,3.2314.2438,4.8597Z" style="fill:#15b69b; stroke-width:0px;"/><path d="M150.4014,328.5252c.0455-2.9824,1.7537-7.2964,5.2048-10.7815,10.1538-10.2538,20.3589-20.4575,30.6041-30.6201,6.4274-6.3757,16.7054-6.9998,24.0188-1.603,4.3679,3.2233,6.8064,7.5631,7.4392,12.9192.7189,6.0845-1.3388,11.2308-5.5804,15.5081-8.6885,8.7617-17.4322,17.4686-26.1689,26.1822-1.7011,1.6966-3.2904,3.5142-5.1964,4.9967-5.7249,4.4527-11.9995,5.3436-18.7545,2.7919-7.01-2.6479-11.5547-9.5454-11.5666-19.3936Z" style="fill:#4bbda4; stroke-width:0px;"/></svg>