<?xml version="1.0" encoding="UTF-8"?><svg id="Layer_1" xmlns="http://www.w3.org/2000/svg" viewBox="0 0 59.6387 23.0638"><path d="M.0163,4.044c.0534.0218.0819.0666.1156.1036.1523.1674.3027.3366.4543.5048.2171.2409.4344.4816.6519.7222.1293.143.2592.2854.3885.4283.2195.2428.4385.4861.6583.7287.1397.1542.2809.307.4204.4614.1477.1634.2939.3282.4415.4916.1374.1521.2762.303.4138.455.156.1724.3112.3456.4672.518.1355.1497.272.2985.4074.4483.2134.236.4259.4727.6393.7087.1354.1498.272.2986.4073.4485.2071.2293.4134.4594.6205.6887.121.134.2432.2669.3643.4007.026.0288.0438.0216.0656-.0061.2768-.3506.5851-.6745.8682-1.0199.2501-.3052.5073-.6047.7619-.9062.2783-.3296.5577-.6583.8356-.9883.2424-.2878.4821-.578.7254-.8651.1661-.196.3376-.3875.5043-.583.1866-.2188.3701-.4403.5557-.66.2172-.2571.4356-.5132.6528-.7703.1797-.2127.3579-.4266.5375-.6394.2171-.2572.4351-.5136.6522-.7708.1697-.2011.3387-.4028.508-.6043.1811-.2155.362-.4311.5431-.6466.2185-.26.4367-.5203.6558-.7798.1816-.2151.3646-.429.5463-.6439.1837-.2173.3664-.4354.5498-.653.1656-.1965.3315-.3929.4972-.5893.0117-.0139.0236-.032.0444-.0247.0209.0074.0187.0295.0196.0474.0011.0245.0008.049.0008.0735,0,1.2495-.0006,2.499.0014,3.7485.0001.0914-.0248.1627-.0845.2328-.3255.382-.6472.7672-.9696,1.1518-.2359.2814-.4701.5643-.7063.8455-.2775.3304-.557.6591-.8344.9895-.2676.3187-.5334.639-.8005.9581-.2298.2745-.4607.5482-.6907.8226-.411.49-.8213.9806-1.2327,1.4703-.3326.396-.6667.7907-.9996,1.1865-.3151.3747-.6292.7503-.9442,1.125-.1122.1335-.2266.2652-.3389.3987-.0893.1062-.0904.1118-.0007.2141.1512.1725.3049.3428.4578.5139.1957.2189.3915.4378.5877.6564.1206.1343.2421.2678.3631.4018.2215.2452.4426.4907.6646.7354.1481.1631.2979.3247.4462.4875.1442.1583.2875.3175.4312.4763.0118.013.0189.0325.0472.0296.0174-.0318.0099-.0688.0099-.104.0005-.6462.0019-1.2924-.0014-1.9385-.0005-.0892.0256-.1583.0818-.2246.3698-.4367.7385-.8743,1.1062-1.3127.2596-.3095.5163-.6213.7755-.9311.2042-.2441.41-.4868.6159-.7294.0189-.0223.0344-.0515.0688-.0561.0243.0141.0166.0378.0178.0579.0015.0244.0005.049.0005.0735,0,3.8373,0,7.6745,0,11.5118,0,.0398.0013.0798-.0026.1193-.0035.035-.0237.0414-.0489.0154-.0726-.0745-.1443-.15-.2153-.2262-.1376-.1478-.2738-.297-.4117-.4445-.2905-.3108-.582-.6206-.8726-.9313-.1547-.1654-.308-.332-.4625-.4975-.2736-.293-.5491-.5843-.821-.8789-.2428-.2631-.4867-.5252-.7317-.7863-.2533-.27-.5034-.5431-.7572-.8128-.172-.1827-.3431-.3662-.5136-.5503-.2621-.2829-.5257-.5642-.7895-.8454-.2449-.2612-.4859-.5259-.7324-.7857-.2548-.2686-.5054-.5413-.7578-.8122-.1669-.1791-.3345-.3575-.5005-.5374-.2678-.2901-.5355-.5802-.8085-.8654-.1459-.1525-.2873-.3094-.4308-.4642-.2912-.3142-.5823-.6285-.8735-.9427-.0915-.0988-.1865-.1942-.2767-.2944-.1412-.157-.2913-.3059-.435-.4606-.2729-.2936-.5436-.5892-.8159-.8834-.0956-.1033-.1946-.2034-.2896-.3074-.2167-.2373-.4412-.4674-.6597-.703-.2559-.2759-.5087-.5547-.7629-.8322-.2108-.2301-.4219-.46-.6324-.6904-.1259-.1378-.2501-.2771-.3764-.4145C.0257,8.0176-.0002,7.9483,0,7.8583c.0028-1.2342.0018-2.4683.0022-3.7025,0-.0354-.0073-.0725.0141-.1118Z" style="fill:#17b79b; stroke-width:0px;"/><path d="M.0131,23.056c-.0175-.0358-.0109-.07-.0109-.1031-.0004-1.3105.0002-2.6209-.0015-3.9314-.0001-.0787.0232-.137.0753-.1971.2144-.2473.4222-.5003.6332-.7506.1854-.2198.3723-.4383.5576-.6581.2031-.2409.405-.4828.608-.7238.1892-.2246.3794-.4483.5688-.6728.2091-.2479.4175-.4963.6266-.7441.1578-.187.3168-.3731.4746-.5601.1735-.2058.3461-.4124.5194-.6184.0965-.1147.193-.2294.2907-.3431.0359-.0417.0511-.0422.0884-.002.1789.1929.3573.3862.535.5803.1012.1106.2071.2167.308.3278.2161.2377.441.4674.6591.7032.0769.0831.1527.1671.2316.2484.066.0681.0678.0815.0081.1539-.1071.1297-.2168.2573-.3254.3859-.1796.2127-.3594.4252-.5388.6381-.1834.2175-.3665.4351-.5496.6529-.244.2904-.4873.5814-.732.8713-.1894.2244-.3808.4471-.5705.6712-.172.2031-.343.4071-.5143.6108-.1811.2154-.362.431-.543.6465-.2184.2599-.4365.5202-.6556.7796-.2171.2571-.4357.5129-.6527.7701-.1735.2058-.3452.4131-.5183.6193-.1711.2039-.3426.4073-.5144.6106-.0133.0157-.0253.0353-.0573.0349Z" style="fill:#17b79b; stroke-width:0px;"/><path d="M14.0416,7.4594c.0305.035.0209.0669.021.0961.0006.8357,0,1.6715.0013,2.5072.0001.0678-.0164.1223-.0616.1752-.2247.2626-.4463.5279-.6686.7926-.1614.1921-.3223.3845-.4833.5768-.214.2557-.4276.5117-.642.7671-.2439.2905-.4886.5803-.7329.8704-.0079.0094-.0144.0201-.0232.0284-.0258.0241-.0455.019-.0509-.0146-.0039-.024-.003-.0488-.003-.0733-.0001-.8266.0006-1.6531-.0014-2.4797-.0002-.0751.0191-.1359.0673-.1927.2415-.2845.4816-.5702.7216-.8559.2322-.2764.4638-.5532.6955-.8299.2062-.2462.4122-.4926.6183-.7389.1473-.1759.2947-.3517.4419-.5276.0292-.0349.0582-.07.0999-.1011Z" style="fill:#17b79b; stroke-width:0px;"/><path d="M17.3194,19.3621c.0247-.2912.0118-.583.0113-.8745-.0003-.1579-.016-.3152,0-.4737.0347-.3451.0146-.6914.0121-1.037-.0008-.1147.0374-.2003.1145-.2787.337-.3425.6503-.7051.9782-1.0553.2445-.2611.4913-.5202.7321-.7844.1102-.1209.2095-.2508.3272-.3658.0335-.0327.0311-.065-.0031-.1007-.2237-.2334-.44-.4731-.6661-.7045-.1694-.1734-.3262-.3579-.4947-.5322-.1284-.1328-.2552-.2674-.3866-.3974-.1498-.1482-.2834-.3101-.4337-.4572-.0779-.0761-.1379-.1665-.221-.2375-.0305-.026-.0427-.0577-.0426-.0963.0004-.2145.0105-.4298-.0039-.6434-.0105-.1559.0044-.3109-.0008-.4664-.0039-.1167-.0082-.2367.0099-.3566.0196-.1301.0059-.2651.0017-.3979-.0016-.0519-.0079-.1037-.0019-.1556.0166-.1441.0059-.2885.0046-.4327-.0004-.0439-.0072-.0926.0361-.1166.0449-.0248.0883.0078.1221.0335.0947.0717.1823.1513.2647.2359.1241.1274.2514.2521.3722.3824.1286.1388.2641.2716.3955.4077.11.114.2162.2324.3368.3386.1247.1098.2283.2411.3433.3612.1644.1716.3325.3401.496.5125.2224.2345.439.4741.6638.7064.1073.1109.2268.2104.3262.3293.0692.0827.1531.1541.2272.2334.0456.0487.0821.0417.1217-.0043.081-.0942.1652-.1861.2441-.2818.1185-.1437.2427-.2831.3743-.4156.1484-.1495.2798-.3124.4239-.4653.1944-.2063.3794-.4207.5689-.6311.1913-.2124.3843-.4238.5833-.6291.1863-.1922.3547-.3986.542-.5902.136-.1392.2621-.2902.3919-.4364.1652-.186.3342-.369.5005-.5542.1494-.1664.2955-.3355.4465-.5005.1448-.1581.2893-.3165.4395-.4703.1193-.1221.2287-.2531.3397-.3823.0387-.045.0847-.079.1369-.1062.0521-.0271.1006-.0069.1153.0481.0087.0326.0159.0673.0139.1004-.0205.3345.0003.6693-.01,1.0036-.0138.4474-.0159.8949-.0135,1.3424.0004.0648-.0343.1126-.0736.1567-.2073.2319-.4171.4618-.6256.6927-.19.2105-.3816.4198-.5686.6328-.1992.2268-.3921.4586-.591.6855-.1139.1299-.2356.2535-.3513.382-.1094.1216-.2152.2462-.3233.3688-.2162.2452-.4339.4893-.6492.7353-.2049.2341-.4075.47-.6114.7049-.0263.0302-.0131.0524.0108.0763.1945.1943.3902.3876.5819.5843.1758.1804.3597.3537.5311.5375.1069.1146.2197.2244.3224.3428.0381.0439.0388.098.039.1482.0023.4546.012.9095-.0022,1.3637-.0099.3144-.0046.6284-.0089.9425-.0011.0839-.0088.1669-.0152.2502-.0024.0313-.0129.0594-.0451.0712-.0324.0119-.0618-.0027-.0838-.0243-.155-.1523-.3124-.3026-.4622-.4594-.0973-.1019-.1971-.2019-.2973-.3007-.2964-.2925-.585-.5918-.8732-.8916-.2177-.2265-.4418-.4473-.6593-.6737-.1213-.1263-.2421-.2536-.3633-.3803-.0635-.0664-.0842-.0669-.1391.0021-.1978.2485-.4203.4773-.6328.7137-.1987.2211-.3832.4532-.5903.6679-.1759.1823-.3336.3805-.5018.5698-.1775.1999-.3595.3962-.5365.5965-.2304.2606-.4567.5244-.6871.7849-.113.1277-.2313.251-.3473.3762-.0274.0296-.0614.0451-.1015.0294-.0395-.0154-.0662-.0443-.0694-.087-.0052-.0675-.0209-.1344-.0145-.2028Z" style="fill:#000000; stroke-width:0px;"/><path d="M59.6365,15.2745c0,.4976-.0063.9954.002,1.4929.0066.3927-.1364.7297-.3635,1.0484-.2337.3278-.5552.5389-.9338.6785-.1839.0678-.38.1022-.577.1034-.7069.0044-1.4139.0047-2.1207-.0002-.2626-.0018-.5193-.0532-.759-.1576-.3148-.1371-.5791-.3321-.7847-.6056-.2243-.2983-.332-.6262-.3425-.9872-.0053-.1808-.002-.3619-.0009-.5428.0019-.321-.0174-.6417-.0142-.9629.0046-.4609.0009-.9219.001-1.3828,0-.1972.0261-.3905.0707-.5838.0372-.161.0898-.3154.177-.4548.124-.1982.2807-.3699.4698-.5198.189-.1498.4017-.2435.6283-.319.156-.052.3177-.0762.4817-.0767.7615-.0021,1.5231-.0102,2.2844.0028.4147.007.7825.1595,1.1034.4143.2456.195.4302.4338.5516.7116.077.1763.1272.3639.1264.5602-.0021.527-.0007,1.0541-.0007,1.5811h.0008ZM55.7639,15.2986h-.0004c0,.4388-.0003.8775.0002,1.3163.0001.0991.0129.111.1136.111.5408.0004,1.0816.0005,1.6223.0003.1084,0,.1145-.006.1261-.1096.0015-.0135.002-.0271.0021-.0406.0023-.3255.0059-.6509.0117-.9763.0091-.511.0026-1.0222.0023-1.5333,0-.0315-.0016-.0634-.0068-.0945-.0152-.0898-.0504-.118-.1445-.106-.0781.01-.156.0102-.2342.0102-.4554.0003-.9108,0-1.3662.0002-.1164,0-.1262.0093-.1262.1197-.0002.4342,0,.8685,0,1.3027Z" style="fill:#17b79b; stroke-width:0px;"/><path d="M46.4839,15.3434c0-.4773,0-.9545,0-1.4318,0-.2783.042-.5503.1553-.8078.0867-.1971.2101-.3736.3635-.5308.332-.3402.7472-.5152,1.2257-.5661.0352-.0037.071-.0033.1066-.0033.7117-.0004,1.4233.002,2.135-.0019.316-.0017.6078.0725.8855.2129.2339.1182.4347.2762.5987.4703.1476.1747.2489.378.3221.5924.0705.2067.088.4192.0875.6355-.0008.3119.0101.6238.0111.9357.002.6123.0035,1.2246-.0011,1.8369-.0014.1871-.0196.374-.0743.5564-.0659.2198-.1703.4205-.3103.6048-.1911.2517-.4305.4425-.7317.5724-.2929.1263-.5964.1765-.9116.1783-.612.0034-1.2241.0028-1.8361.0006-.2329-.0008-.467-.018-.687-.0928-.349-.1186-.6765-.2763-.9037-.5713-.2669-.3464-.4397-.7253-.4366-1.1655.0033-.475.0008-.95.0008-1.425h.0006ZM50.3547,15.2979h.0008c0-.443-.0007-.8861.0009-1.3291.0002-.0599-.0181-.0877-.085-.0986-.1031-.0167-.2032.0057-.3046.0056-.4457-.0002-.8913,0-1.337.0003-.1284.0001-.1393.0107-.1395.13-.0002.1175,0,.2351,0,.3526,0,.7278,0,1.4557,0,2.1835,0,.1796.0045.1837.1882.1837.5191.0002,1.0383.0006,1.5574.0006.1063,0,.1184-.0111.1185-.1132.0005-.4385.0002-.877.0002-1.3155Z" style="fill:#17b79b; stroke-width:0px;"/><path d="M36.5918,18.1242c0-.9183,0-1.8366,0-2.7549,0-.0294-.0015-.0588-.0003-.0882.0027-.0637-.0299-.0893-.0951-.0889-.1921.0012-.3843.0004-.5764.0001-.1383-.0002-.1682-.0276-.1683-.1586-.0005-.5225-.0005-1.0449-.0002-1.5674,0-.113.0348-.1462.1524-.1465.185-.0005.37.0006.5551,0,.116-.0004.1321-.0156.1323-.1255.0005-.4999-.0038-.9998.0023-1.4995.0032-.2604.0729-.5086.1922-.7442.219-.4326.5802-.7157,1.0348-.9017.2252-.0922.4637-.1256.7061-.1357.5309-.0222,1.0621-.0108,1.5933-.0128.1485-.0006.1727.0235.1727.1661.0002.5179.0004,1.0359.0002,1.5538,0,.1414-.0262.1664-.1734.1666-.3511.0004-.7021.0024-1.0532-.0004-.1236-.001-.246.0155-.3693.0136-.0527-.0008-.0789.0255-.0819.0739-.002.0316-.0023.0633-.0023.0949-.0003.4071-.0005.8142-.0005,1.2214,0,.1292.0002.1297.1394.1297.427,0,.8539-.0005,1.2809-.0006.1261,0,.1615.0271.1701.1483.0066.0922.002.1853.0004.2779-.0016.09-.0146.1806-.0071.2697.0194.2305.0098.4611.0078.6915-.001.1149-.0092.2301-.0114.3453-.0017.0892-.0457.1332-.1396.1381-.0757.0039-.1518.0018-.2277.0018-.3653,0-.7306-.0003-1.0959-.0003-.111,0-.116.0003-.1168.103-.0024.3162.0015.6324-.0012.9486-.0016.1898-.0141.3793-.0125.5693.0028.3252-.0058.6507.0024.9757.0082.321.0119.6419.0102.9628-.0008.1445-.0086.289-.0124.4335-.0011.0407-.0178.0732-.0459.1034-.0755.0811-.1582.155-.2399.2303-.1395.1286-.2713.2649-.407.3973-.2532.2471-.5065.4941-.7606.7404-.1363.1321-.2743.2625-.4117.3935-.0251.0239-.0494.0532-.0906.0422-.0446-.0119-.04-.0529-.0447-.0845-.006-.04-.0062-.0811-.0062-.1217-.0003-.9205-.0002-1.8411-.0002-2.7616Z" style="fill:#17b79b; stroke-width:0px;"/><path d="M25.0766,13.4182c0-.4342-.0002-.8685.0002-1.3027,0-.1017.0386-.1395.1453-.1396.5859-.0005,1.1717-.0003,1.7576.0004.1026.0001.1459.0389.158.1365.0025.0201.0019.0406.0019.061.0002.6757.0049,1.3515-.0028,2.0271-.0019.1645.0304.3095.1175.4499.0928.1496.1709.3074.2623.4578.1734.2853.3336.5774.5015.8655.0161.0276.0271.058.0444.0848.0307.0477.0618.0482.0999.0061.0393-.0435.061-.0963.0894-.1457.2013-.3506.4006-.7023.6083-1.0494.0609-.1017.1216-.2032.178-.3072.0421-.0776.0671-.1576.0668-.2463-.0012-.432,0-.8639.0003-1.2959.0001-.2756-.0004-.5512.0003-.8267,0-.036.003-.0724.0093-.1078.0129-.0732.052-.1057.1296-.109.0497-.0021.0996-.0011.1494-.0011.5005,0,1.0009.0003,1.5014.0004.2344,0,.2582.022.2583.2427.0004.8142-.0016,1.6284.0031,2.4426.0007.1248-.0435.2322-.104.3323-.1441.2383-.295.4728-.4335.7144-.1509.2632-.3159.5191-.4661.7826-.1232.2161-.2641.422-.3858.6394-.1042.1863-.2111.3727-.3257.5544-.1349.214-.2619.4326-.3879.6515-.0316.055-.0638.1107-.0908.1678-.0337.0713-.0902.0947-.1642.0952-.0996.0007-.1992-.0002-.2989-.0001-.3629,0-.7258-.0004-1.0887.001-.0697.0003-.1134-.0216-.1561-.0809-.1632-.2266-.2664-.4835-.4123-.7185-.1931-.3109-.3731-.629-.5588-.9438-.1077-.1826-.2118-.3677-.3218-.5493-.1039-.1715-.204-.3454-.3055-.518-.126-.2143-.2707-.4184-.3842-.6397-.0486-.0947-.119-.1788-.1608-.2782-.0243-.0578-.0365-.1156-.0363-.178.0012-.4252.0006-.8504.0006-1.2756h.0005Z" style="fill:#000000; stroke-width:0px;"/><path d="M41.645,14.2236c0-.8548-.0047-1.7097.0018-2.5645.0038-.4991.0116-.9981.0108-1.4972,0-.0451-.0022-.0904-.0053-.1354-.0044-.0647.0243-.1031.0925-.1134.0467-.007.0942-.012.1413-.0121.5336-.0008,1.0673-.0006,1.6009-.0003.1383,0,.1589.0267.1665.1597.0195.3435.0144.6872.0094,1.0306-.0217,1.4919-.007,2.9839-.0085,4.4759-.0002.2099.0109.4201.0094.6303-.0008.1081-.0068.2162-.0113.3242-.002.0477.0012.0947.012.1415.0071.031.0256.0469.0586.0488.078.0044.156.0127.234.013.3795.0014.759.0005,1.1384.0007.1082,0,.1376.0262.1476.13.0022.0225.0018.0452.0018.0678.0002.5043.0004,1.0086.0004,1.5129,0,.1348-.0298.1629-.1711.1628-.306-.0001-.6122.0076-.9178-.0026-.3075-.0103-.6169.002-.9222-.0412-.2534-.0358-.4846-.1328-.7053-.2577-.2932-.1659-.499-.4042-.6587-.6849-.1415-.2488-.2223-.5156-.2239-.7974-.0049-.8639-.0018-1.7278-.0018-2.5917h.0003Z" style="fill:#17b79b; stroke-width:0px;"/><path d="M34.5409,13.7608c0,.3076.0089.6155-.0021.9228-.0169.4726-.0063.945-.0103,1.4175-.0017.1989.0147.3973.0136.5964-.0032.574-.0008,1.148-.0007,1.722,0,.1456-.0354.18-.1879.1802-.3677.0003-.7356-.0071-1.103.003-.1938.0053-.3875-.0182-.5814.0067-.0883.0113-.1468-.0475-.1491-.1338-.0161-.6098.0058-1.2196.001-1.8295-.005-.6288.0003-1.2576-.0019-1.8864-.0003-.0806.0265-.1459.0798-.2037.2812-.3054.5646-.609.8442-.9158.2096-.2301.414-.4646.6219-.6961.1017-.1133.2085-.2221.3303-.3165.0786-.0609.1224-.0461.1402.0482.0054.0287.006.0585.0061.0878.0004.3325.0003.665.0003.9975h-.0008Z" style="fill:#000000; stroke-width:0px;"/><path d="M32.5783,12.7212c0-.355.0002-.71-.0001-1.065,0-.0632.0161-.1186.0614-.1681.2411-.2638.4812-.5286.7201-.7942.2081-.2313.4094-.4683.6227-.6951.1596-.1697.2957-.3591.4741-.5128.028-.0241.0525-.0561.0973-.0421.0443.0138.0476.0536.0536.0886.0053.031.0056.063.0056.0946.0001.3347.0085.6697-.003,1.004-.012.3476.0063.6945.0051,1.0418-.0005.1345-.0361.2423-.1339.3418-.311.3163-.592.6579-.8969.9796-.246.2595-.4816.5281-.723.7916-.0467.051-.0974.0991-.1498.1448-.053.0462-.1026.0296-.1199-.0368-.0103-.0397-.0134-.0801-.0133-.1211.0004-.3505.0002-.701.0003-1.0516Z" style="fill:#17b79b; stroke-width:0px;"/></svg>