<?xml version="1.0" encoding="UTF-8"?><svg id="Layer_1" xmlns="http://www.w3.org/2000/svg" viewBox="0 0 372.2015 76.9429"><path d="M9.876.2826c2.614.0007,5.229.0432,7.8416-.0177,1.2621-.0294,2.011.442,2.5774,1.5841,2.554,5.1506,5.1793,10.2659,7.7782,15.3943.0472.0931.0782.1948.1288.2858.473.8516.8334.8883,1.2856.0553.8224-1.5147,1.5959-3.0561,2.3795-4.5916,1.9718-3.8639,3.9436-7.7278,5.9016-11.5987.4046-.7998,1.0396-1.1097,1.9034-1.1087,5.5939.0062,11.1879-.0131,16.7818.0114,1.448.0064,1.7116.4331,1.0615,1.734-1.9858,3.9734-4.0184,7.9234-6.0313,11.8833-1.1134,2.1902-2.2224,4.3825-3.336,6.5725-2.7713,5.45-5.51,10.9169-8.3415,16.3354-.6565,1.2564-.6257,2.272.0147,3.516,3.8757,7.5271,7.6378,15.1129,11.5329,22.6299,1.8519,3.574,3.6499,7.1745,5.487,10.7556.167.3255.348.6474.4768.9882.33.8735.1165,1.2535-.8229,1.4198-.4081.0722-.833.0671-1.2503.0674-5.0189.0041-10.0384-.0414-15.0563.0278-1.6347.0226-2.5521-.5935-3.2712-2.0691-2.2888-4.6963-4.7134-9.3265-7.1003-13.9747-.229-.4459-.3241-1.156-.913-1.1667-.6031-.011-.6909.7046-.9185,1.1489-2.4546,4.7915-4.9186,9.5786-7.3202,14.3968-.5607,1.1249-1.3191,1.65-2.5681,1.6447-5.3325-.0225-10.6651-.0093-15.9976-.0095-.1045,0-.2094-.0013-.3135-.0097-1.4856-.1203-1.7662-.5636-1.1106-1.8948,1.201-2.4387,2.4311-4.8632,3.6631-7.2865,2.6997-5.3104,5.4043-10.6182,8.1144-15.9233,1.8309-3.584,3.6373-7.1814,5.5328-10.7312.6565-1.2295.6795-2.2598.0251-3.5213-3.9232-7.5631-7.7744-15.1635-11.644-22.7543C4.4681,10.3515,2.5814,6.6207.6904,2.8921c-.1655-.3263-.3435-.6484-.4806-.9867C-.243.7882.008.4005,1.2503.2988c.3638-.0298.7315-.0162,1.0974-.0163,2.5094-.0011,5.0189-.0006,7.5283,0Z" style="fill:#15b69b; stroke-width:0px;"/><path d="M246.7269,47.9529c.0041-6.0369,1.7909-11.506,5.3124-16.4116,4.8271-6.7243,11.5369-10.2445,19.5832-11.4835,5.5645-.8568,10.9837-.1951,16.1519,1.9369,5.3326,2.1999,9.7057,5.6428,12.8457,10.6061,3.549,5.6097,5.0112,11.746,4.4512,18.258-.6882,8.0018-4.0578,14.7608-10.4823,19.7851-6.9998,5.4741-14.964,7.0598-23.6553,5.833-4.7271-.6673-8.9483-2.4481-12.7835-5.2165-5.3441-3.8575-8.7084-9.0716-10.4344-15.3894-.7072-2.5888-1.0862-5.2183-.989-7.9182ZM265.9815,48.2022c0,.4695-.049.945.0075,1.4076.6126,5.0166,3.0601,8.0572,7.9832,8.8855,1.3943.2346,2.8103.2106,4.2107-.0249,4.0094-.6742,6.5937-2.9288,7.6016-6.9061.1536-.6062.3324-1.2216.366-1.84.1929-3.5589-.3639-6.8593-3.2236-9.3955-1.6039-1.4225-3.5117-2.0471-5.5669-2.2327-5.0534-.4562-10.1422,1.5637-11.2562,7.9242-.127.7253-.1617,1.4505-.1223,2.1818Z" style="fill:#fff; stroke-width:0px;"/><path d="M313.9466,48.1377c.136-10.4435,4.4156-18.6348,13.4279-24.1275,5.9765-3.6425,12.5081-4.7972,19.4281-4.0376,5.0982.5596,9.7371,2.2895,13.9239,5.2546,2.8572,2.0234,5.169,4.5525,7.0327,7.4983,2.153,3.4029,3.544,7.086,4.0968,11.091,1.0499,7.6067-.2313,14.7333-4.7031,21.0428-4.1399,5.8412-9.7711,9.6297-16.8212,11.2142-6.0171,1.3524-12.0102,1.1932-17.7674-.9461-10.1101-3.7568-16.2571-11.0388-18.3192-21.6812-.129-.6662-.2565-1.3412-.2857-2.0164-.0474-1.0955-.0128-2.1946-.0128-3.2922ZM353.1225,48.4836c0-.6129.0483-1.244-.008-1.8658-.3295-3.6391-2.0916-6.3392-5.4854-7.7555-3.0235-1.2618-6.1465-1.158-9.1706.056-1.893.7599-3.3737,2.0862-4.2619,3.9718-1.7094,3.6291-1.6399,7.2968.003,10.8987.8199,1.7975,2.1895,3.1576,4.0857,3.9227,2.2422.9048,4.5641,1.1718,6.9217.7554,1.6917-.2988,3.3303-.7772,4.6805-2.0126,2.3581-2.1578,3.5157-4.7554,3.235-7.9709Z" style="fill:#fff; stroke-width:0px;"/><path d="M155.4266,42.2969c0-10.1913.0093-20.3826-.0062-30.5739-.0041-2.7034.7084-5.1276,2.3509-7.3151,1.2789-1.7033,2.9466-2.8091,4.8865-3.5105,1.6241-.5872,3.327-.8955,5.0717-.8952,11.0798.002,22.1596.0001,33.2394.0006.3135,0,.6294-.0106.94.0227,1.0224.1098,1.3475.422,1.4939,1.4716.0574.4118.0536.834.0539,1.2515.0034,4.3378.0046,8.6757-.0016,13.0135-.0007.4688-.021.9421-.0887,1.4051-.0949.6496-.4937,1.0242-1.1618,1.0576-.5216.0261-1.0446.0313-1.567.0314-7.7872.0019-15.5744.001-23.3616.0022-.5225,0-1.0472-.0172-1.5672.0224-1.4268.1086-1.9741.6275-2.0042,2.0695-.0479,2.2986-.0377,4.5991-.0124,6.8983.0155,1.4073.198,1.5777,1.6893,1.5841,4.1287.0177,8.2576.0072,12.3864.0081,1.1498.0002,2.2998-.0138,3.4493.0054,1.7788.0298,2.0977.3725,1.9024,2.1805-.1625,1.5051-.4042,3.0017-.6178,4.5012-.4346,3.0507-.8709,6.1012-1.3145,9.1507-.0676.4648-.1728.9245-.2692,1.3848-.1226.5853-.4962.9099-1.0836.9581-.4678.0384-.9392.0458-1.409.0461-4.2856.0035-8.5712-.0049-12.8568.0064-1.7742.0047-1.8803.105-1.8824,1.8627-.0092,7.9963-.0033,15.9925-.0055,23.9888-.0008,2.8899-.0899,2.9769-3.0044,2.9782-4.181.0019-8.3621.0012-12.5432-.0006-.4702-.0002-.9411-.0023-1.4104-.0263-.8051-.0411-1.2513-.461-1.2772-1.2817-.0165-.5222-.0237-1.0449-.0238-1.5674-.0013-10.2436-.001-20.4872-.001-30.7307h.006Z" style="fill:#fff; stroke-width:0px;"/><path d="M67.1414,20.654c2.0384,0,4.0768-.0068,6.1152.002,1.9131.0083,2.0654.0504,2.5475,1.8341,1.1463,4.2413,2.6554,8.3671,3.9126,12.573,1.4064,4.7054,2.9115,9.3813,4.3755,14.0694,1.0747,3.4415,2.1397,6.8861,3.2416,10.3188.1807.563.1736,1.4661.9112,1.4929.8654.0314.8602-.9124,1.0512-1.5264,1.7538-5.637,3.3815-11.3161,5.2646-16.9093,1.6508-4.9033,2.9292-9.9212,4.7077-14.7833.645-1.7633,1.0704-3.6057,1.6431-5.3971.4992-1.5617.6382-1.6621,2.2036-1.6676,4.2858-.015,8.5717-.0054,12.8576-.0051.1567,0,.3142-.0026.4701.0103,1.1722.0972,1.3978.3774,1.0802,1.4917-.358,1.2559-.7701,2.4966-1.1665,3.7414-2.4736,7.7679-4.95,15.535-7.4243,23.3026-1.6019,5.0289-3.1928,10.0613-4.8072,15.0862-.6262,1.9492-1.4761,3.812-2.6369,5.495-2.8055,4.0674-6.7797,6.0951-11.656,6.3953-3.0554.1881-6.0517-.0684-8.8807-1.4161-3.4154-1.627-5.7945-4.2314-7.3035-7.6524-2.2212-5.0359-3.5113-10.3907-5.2519-15.5909-1.9901-5.9457-3.8098-11.9485-5.7022-17.9269-1.1828-3.7364-2.3724-7.4706-3.54-11.2117-.4343-1.3915-.2212-1.6949,1.2454-1.7151,2.2471-.031,4.4948-.0081,6.7423-.0081v-.0028Z" style="fill:#15b69b; stroke-width:0px;"/><path d="M212.8586,28.6825c0-8.6796-.0014-17.3593.001-26.039.0007-2.5063.1297-2.6365,2.6733-2.6402,4.2875-.0063,8.5751-.0018,12.8626-.0017.1569,0,.3138-.0014.4706.0019,1.9027.0391,2.2036.3292,2.2433,2.1762.0101.4704.0033.9411.0033,1.4117.0004,15.5816.0012,31.1631-.0002,46.7446-.0001,1.361.0431,2.7071.3937,4.0434.5008,1.9088,1.6927,3.0813,3.5596,3.5949,1.2616.3471,2.544.575,3.8572.6575,1.2893.0809,1.576.3511,1.5828,1.6305.0265,5.0194.0258,10.0391-.0019,15.0584-.0063,1.1519-.3061,1.5218-1.3472,1.513-5.405-.0452-10.7683-.399-15.8169-2.6189-5.671-2.4936-8.6599-7.019-9.7501-12.9502-.4254-2.3146-.6743-4.6585-.6791-7.0142-.0173-8.5227-.0068-17.0453-.0068-25.568-.0151,0-.0301,0-.0451,0Z" style="fill:#fff; stroke-width:0px;"/><path d="M126.6456,53.6306c.0005-6.4828.0036-12.9656-.0009-19.4483-.0021-2.9788,1.0073-5.5135,3.2291-7.5422,1.5266-1.3939,3.2903-2.1602,5.3724-2.2343,2.1292-.0757,4.1704.1371,6.0074,1.3527,2.7506,1.82,4.0041,4.4598,4.2202,7.6617.0597.8849.0189,1.7769.0189,2.6656.0007,12.3382.001,24.6764,0,37.0146q-.0002,2.8332-2.9031,2.8356c-4.3916.0013-8.7831.001-13.1747-.0007-.4704-.0002-.9409-.0087-1.411-.0232-.817-.0253-1.2471-.4728-1.3098-1.2666-.0411-.5202-.0468-1.0442-.047-1.5665-.0029-6.4828-.0019-12.9656-.0015-19.4483Z" style="fill:#15b69b; stroke-width:0px;"/><path d="M136.0588.2565c5.5182.0056,9.7229,4.2213,9.7631,9.7167.0383,5.2425-4.2328,9.7583-9.8593,9.6821-5.7136-.0773-9.7085-4.5909-9.6942-9.71.0153-5.4546,4.279-9.6944,9.7904-9.6888Z" style="fill:#15b69b; stroke-width:0px;"/></svg>